<?xml version="1.0" standalone="no"?>
<!DOCTYPE svg PUBLIC "-//W3C//DTD SVG 20010904//EN"
 "http://www.w3.org/TR/2001/REC-SVG-20010904/DTD/svg10.dtd">
<svg version="1.0" xmlns="http://www.w3.org/2000/svg"
 width="1500.000000pt" height="1500.000000pt" viewBox="0 0 1500.000000 1500.000000"
 preserveAspectRatio="xMidYMid meet">
<metadata>
Created by potrace 1.11, written by Peter Selinger 2001-2013
</metadata>
<g transform="translate(0.000000,1500.000000) scale(0.100000,-0.100000)"
fill="#000000" stroke="none">
<path d="M0 7500 l0 -7500 7500 0 7500 0 0 7500 0 7500 -7500 0 -7500 0 0
-7500z m8950 3499 c481 -43 888 -181 1253 -423 646 -428 1029 -1143 1107
-2061 6 -76 10 -990 10 -2517 l0 -2398 -1160 0 -1160 0 0 1958 c0 1217 -4
2014 -10 2107 -22 322 -94 553 -243 775 -104 155 -302 319 -472 389 -403 168
-901 142 -1283 -66 -364 -198 -613 -558 -738 -1064 l-29 -114 -2 -1992 -3
-1993 -1170 0 -1170 0 0 3650 0 3650 1170 0 1170 0 0 -592 0 -592 84 125 c260
384 594 674 1011 875 312 151 684 250 1060 283 145 12 442 13 575 0z"/>
</g>
</svg>
